<svg width="37" height="30" viewBox="0 0 37 30" fill="none" xmlns="http://www.w3.org/2000/svg">
<path fill-rule="evenodd" clip-rule="evenodd" d="M34.8001 27.706C34.1201 28.734 33.6051 30 32.2231 30C29.8971 30 29.7711 26.413 27.4431 26.413C25.1161 26.413 25.2421 30 22.9161 30C20.5901 30 20.4641 26.413 18.1361 26.413C15.8091 26.413 15.9351 30 13.6081 30C11.2821 30 11.1561 26.413 8.82808 26.413C6.50008 26.413 6.62808 30 4.30008 30C3.56908 30 3.05508 29.646 2.62208 29.16C0.894488 26.14 -0.00967084 22.7192 7.80086e-05 19.24C7.80086e-05 8.613 8.20808 0 18.3331 0C28.4601 0 36.6671 8.614 36.6671 19.24C36.6671 22.277 35.9951 25.15 34.8001 27.706Z" fill="#FB70A9"/>
<path fill-rule="evenodd" clip-rule="evenodd" d="M34.8001 27.706C34.1201 28.734 33.6051 30 32.2231 30C29.8971 30 29.7711 26.413 27.4431 26.413C25.1161 26.413 25.2421 30 22.9161 30C20.5901 30 20.4641 26.413 18.1361 26.413C15.8091 26.413 15.9351 30 13.6081 30C11.2821 30 11.1561 26.413 8.82808 26.413C6.50008 26.413 6.62808 30 4.30008 30C3.56908 30 3.05508 29.646 2.62208 29.16C0.894488 26.14 -0.00967084 22.7192 7.80086e-05 19.24C7.80086e-05 8.613 8.20808 0 18.3331 0C28.4601 0 36.6671 8.614 36.6671 19.24C36.6671 22.277 35.9951 25.15 34.8001 27.706Z" fill="#FB70A9"/>
<path fill-rule="evenodd" clip-rule="evenodd" d="M30.834 29.616C35.638 22.469 35.763 14.541 31.206 5.83203C34.7165 9.42661 36.6772 14.2546 36.667 19.279C36.667 22.305 35.972 25.169 34.733 27.713C34.028 28.737 33.493 29.999 32.06 29.999C31.57 29.999 31.174 29.851 30.834 29.616Z" fill="#E24CA6"/>
<path fill-rule="evenodd" clip-rule="evenodd" d="M17.35 24.038C23.726 24.038 26.41 20.34 26.41 15.088C26.41 9.834 22.355 5 17.35 5C12.347 5 8.29102 9.835 8.29102 15.087C8.29102 20.34 10.974 24.038 17.35 24.038Z" fill="white"/>
<path d="M14.9151 15.3848C16.7911 15.3848 18.3121 13.7048 18.3121 11.6348C18.3121 9.56377 16.7921 7.88477 14.9151 7.88477C13.0391 7.88477 11.5181 9.56377 11.5181 11.6348C11.5181 13.7048 13.0381 15.3848 14.9151 15.3848Z" fill="#030776"/>
<path d="M14.3499 12.5001C15.2869 12.5001 16.0479 11.7251 16.0479 10.7701C16.0479 9.81306 15.2879 9.03906 14.3489 9.03906C13.4109 9.03906 12.6499 9.81306 12.6499 10.7691C12.6499 11.7251 13.4099 12.5001 14.3499 12.5001Z" fill="white"/>
</svg>
